<svg id="svg" version="1.1" xmlns="http://www.w3.org/2000/svg" width="400" height="527.7860326894503" viewBox="0, 0, 400,527.7860326894503">
    <g id="svgg">
        <path id="path1"
              d="M25.843 5.927 C 16.427 7.914,8.713 15.831,7.150 25.111 C 6.883 26.700,6.822 83.464,6.892 265.082 L 6.984 502.972 7.649 505.052 C 10.404 513.672,16.855 519.818,25.260 521.828 C 27.785 522.432,27.872 522.433,200.631 522.435 L 373.475 522.437 376.285 521.724 C 385.113 519.485,391.166 513.467,393.971 504.142 C 394.478 502.458,394.506 494.713,394.578 334.699 L 394.654 167.021 323.850 166.942 L 253.046 166.864 250.829 166.177 C 242.743 163.673,236.900 158.040,234.118 150.068 L 233.135 147.251 233.057 76.300 L 232.978 5.349 130.679 5.370 C 33.307 5.390,28.258 5.417,25.843 5.927 M265.379 69.797 L 265.379 134.324 330.053 134.324 L 394.727 134.324 394.576 129.346 C 394.374 122.719,393.500 119.604,390.553 115.007 C 389.403 113.214,289.316 12.777,286.478 10.569 C 281.778 6.911,277.853 5.635,270.654 5.424 L 265.379 5.269 265.379 69.797 M290.686 232.642 C 296.383 235.502,297.864 238.846,297.718 248.522 L 297.623 254.845 296.661 256.796 C 295.236 259.688,293.661 261.311,291.006 262.623 L 288.738 263.744 201.212 263.821 C 103.993 263.905,112.530 264.078,109.196 261.958 C 104.651 259.068,103.863 256.984,103.863 247.845 L 103.863 240.565 104.792 238.633 C 106.417 235.254,109.245 232.814,112.583 231.912 C 113.683 231.615,131.909 231.550,201.337 231.594 L 288.707 231.649 290.686 232.642 M287.331 296.274 C 291.300 296.848,294.877 299.552,296.669 303.336 L 297.623 305.349 297.723 311.675 C 297.878 321.493,296.382 324.759,290.382 327.706 L 288.707 328.529 201.634 328.616 C 104.260 328.714,112.659 328.898,109.084 326.587 C 104.630 323.709,103.642 320.967,103.768 311.849 L 103.863 305.018 104.873 303.031 C 106.596 299.639,109.997 297.010,113.574 296.306 C 115.345 295.958,284.925 295.926,287.331 296.274 M290.408 361.868 C 293.185 363.183,295.162 365.124,296.515 367.863 L 297.623 370.103 297.623 377.117 L 297.623 384.132 296.503 386.396 C 294.633 390.181,291.253 392.627,287.100 393.200 C 285.950 393.359,249.634 393.438,199.108 393.392 C 103.567 393.305,112.952 393.490,109.506 391.626 C 108.067 390.848,105.532 387.959,104.664 386.108 L 103.863 384.398 103.863 377.117 L 103.863 369.837 104.664 368.127 C 105.596 366.138,107.990 363.488,109.824 362.413 C 112.744 360.702,106.712 360.804,201.337 360.865 L 288.410 360.921 290.408 361.868 "
              stroke="none" fill="#343434" fill-rule="evenodd"></path>
        <path id="path2"
              d="M305.646 29.421 C 306.617 30.401,307.478 31.204,307.559 31.204 C 307.641 31.204,306.914 30.401,305.944 29.421 C 304.973 28.440,304.112 27.637,304.030 27.637 C 303.949 27.637,304.676 28.440,305.646 29.421 M6.686 264.042 C 6.686 393.492,6.720 446.404,6.761 381.625 C 6.802 316.845,6.802 210.932,6.761 146.261 C 6.719 81.590,6.686 134.591,6.686 264.042 M371.471 95.245 C 380.214 103.990,387.435 111.144,387.516 111.144 C 387.598 111.144,380.511 103.990,371.768 95.245 C 363.025 86.501,355.804 79.346,355.723 79.346 C 355.641 79.346,362.728 86.501,371.471 95.245 "
              stroke="none" fill="#8c8c8c" fill-rule="evenodd"></path>
        <path id="path3"
              d="M80.015 5.275 C 108.087 5.317,154.023 5.317,182.095 5.275 C 210.167 5.233,187.199 5.199,131.055 5.199 C 74.911 5.199,51.943 5.233,80.015 5.275 M267.088 5.272 C 268.109 5.330,269.781 5.330,270.802 5.272 C 271.824 5.214,270.988 5.167,268.945 5.167 C 266.902 5.167,266.066 5.214,267.088 5.272 M394.762 131.204 C 394.763 133.001,394.812 133.699,394.871 132.753 C 394.930 131.807,394.929 130.336,394.870 129.484 C 394.810 128.632,394.761 129.406,394.762 131.204 M325.260 166.939 L 394.650 167.015 394.725 333.210 L 394.800 499.406 394.800 333.135 L 394.799 166.865 325.334 166.864 L 255.869 166.863 325.260 166.939 M157.429 231.724 C 181.170 231.766,220.019 231.766,243.759 231.724 C 267.500 231.682,248.076 231.647,200.594 231.647 C 153.113 231.647,133.689 231.682,157.429 231.724 M107.114 299.926 L 106.241 300.892 107.207 300.019 C 108.107 299.205,108.309 298.960,108.079 298.960 C 108.028 298.960,107.594 299.395,107.114 299.926 M157.554 328.603 C 181.200 328.645,219.981 328.645,243.735 328.603 C 267.489 328.561,248.143 328.527,200.743 328.527 C 153.343 328.527,133.908 328.561,157.554 328.603 M157.554 360.996 C 181.036 361.038,219.550 361.038,243.141 360.996 C 266.731 360.954,247.519 360.919,200.446 360.919 C 153.373 360.919,134.072 360.954,157.554 360.996 "
              stroke="none" fill="#9c9c9c" fill-rule="evenodd"></path>
        <path id="path4"
              d="M13.503 12.556 L 12.630 13.522 13.596 12.649 C 14.127 12.169,14.562 11.734,14.562 11.683 C 14.562 11.453,14.316 11.655,13.503 12.556 M296.137 19.911 C 300.384 24.160,303.926 27.637,304.008 27.637 C 304.089 27.637,300.681 24.160,296.434 19.911 C 292.187 15.661,288.645 12.184,288.563 12.184 C 288.481 12.184,291.889 15.661,296.137 19.911 M331.501 55.275 C 344.739 68.514,355.638 79.346,355.719 79.346 C 355.801 79.346,345.036 68.514,331.798 55.275 C 318.559 42.036,307.661 31.204,307.579 31.204 C 307.498 31.204,318.262 42.036,331.501 55.275 M297.721 134.547 C 315.590 134.589,344.743 134.589,362.505 134.547 C 380.267 134.504,365.646 134.470,330.015 134.470 C 294.383 134.470,279.851 134.504,297.721 134.547 M107.114 235.141 L 106.241 236.107 107.207 235.234 C 108.107 234.421,108.309 234.175,108.079 234.175 C 108.028 234.175,107.594 234.610,107.114 235.141 M157.602 296.211 C 181.274 296.253,219.922 296.253,243.486 296.211 C 267.050 296.169,247.682 296.135,200.446 296.135 C 153.210 296.135,133.930 296.169,157.602 296.211 M157.281 393.388 C 180.940 393.430,219.655 393.430,243.314 393.388 C 266.973 393.346,247.615 393.312,200.297 393.312 C 152.979 393.312,133.622 393.346,157.281 393.388 M115.379 522.660 C 162.247 522.701,238.941 522.701,285.810 522.660 C 332.678 522.618,294.331 522.584,200.594 522.584 C 106.857 522.584,68.510 522.618,115.379 522.660 "
              stroke="none" fill="#646464" fill-rule="evenodd"></path>
    </g>
</svg>