<svg id="svg" version="1.1" xmlns="http://www.w3.org/2000/svg" width="400" height="385.4955680902498" viewBox="0, 0, 400,385.4955680902498">
    <g id="svgg">
        <path id="path0"
              d="M190.814 6.022 C 79.377 12.373,-1.198 111.319,15.660 221.112 C 29.520 311.375,108.039 378.744,199.355 378.722 C 323.163 378.692,412.253 262.018,379.667 142.584 C 356.895 59.120,276.696 1.128,190.814 6.022 M208.380 8.713 C 338.857 15.909,420.844 149.689,367.390 268.171 C 326.936 357.837,222.583 399.547,130.862 362.710 C 50.016 330.241,2.882 243.603,19.357 157.752 C 36.539 68.218,118.309 3.745,208.380 8.713 M187.591 32.384 C 101.512 40.067,38.143 110.041,39.739 195.649 C 41.716 301.692,144.955 376.637,246.575 345.797 C 341.124 317.104,387.387 210.232,343.735 121.349 C 315.087 63.015,251.339 26.695,187.591 32.384 M215.976 41.067 C 335.607 54.523,393.608 194.221,318.363 287.671 C 248.446 374.505,111.396 358.764,62.990 258.340 C 16.607 162.113,81.398 49.511,188.268 40.617 C 193.243 40.203,210.832 40.489,215.976 41.067 M192.587 63.510 C 99.562 69.190,42.985 167.492,84.906 250.604 C 133.963 347.866,275.640 343.444,318.469 243.315 C 356.105 155.325,287.757 57.699,192.587 63.510 M202.256 119.695 C 204.302 120.649,202.449 118.497,228.042 149.648 C 254.080 181.340,253.285 180.096,250.605 184.970 C 248.384 189.012,247.731 189.171,233.289 189.188 L 221.453 189.202 221.363 225.383 C 221.280 258.759,221.230 261.654,220.721 262.733 C 219.863 264.551,218.599 265.867,216.799 266.817 L 215.149 267.687 199.033 267.687 L 182.917 267.687 181.406 266.943 C 180.576 266.534,179.387 265.636,178.766 264.948 C 176.537 262.481,176.632 264.264,176.632 224.760 L 176.632 189.202 164.603 189.202 L 152.573 189.202 150.826 188.316 C 146.728 186.238,145.173 181.288,147.425 177.485 C 148.100 176.345,187.780 127.833,192.515 122.359 C 195.380 119.047,198.840 118.100,202.256 119.695 "
              stroke="none" fill="#0d477d" fill-rule="evenodd"></path>
    </g>
</svg>